<?xml version="1.0" encoding="UTF-8" standalone="no"?>
<!DOCTYPE svg PUBLIC "-//W3C//DTD SVG 1.1//EN"
 "http://www.w3.org/Graphics/SVG/1.1/DTD/svg11.dtd">
<!-- Generated by graphviz version 12.2.0 (20241103.1931)
 -->
<!-- Title: snakemake_dag Pages: 1 -->
<svg width="998pt" height="1064pt"
 viewBox="0.00 0.00 997.50 1063.50" xmlns="http://www.w3.org/2000/svg" xmlns:xlink="http://www.w3.org/1999/xlink">
<g id="graph0" class="graph" transform="scale(1 1) rotate(0) translate(4 1059.5)">
<title>snakemake_dag</title>
<polygon fill="white" stroke="none" points="-4,4 -4,-1059.5 993.5,-1059.5 993.5,4 -4,4"/>
<!-- 0 -->
<g id="node1" class="node">
<title>0</title>
<path fill="none" stroke="#566bd8" stroke-width="2" d="M514.62,-36C514.62,-36 416.88,-36 416.88,-36 410.88,-36 404.88,-30 404.88,-24 404.88,-24 404.88,-12 404.88,-12 404.88,-6 410.88,0 416.88,0 416.88,0 514.62,0 514.62,0 520.62,0 526.62,-6 526.62,-12 526.62,-12 526.62,-24 526.62,-24 526.62,-30 520.62,-36 514.62,-36"/>
<text text-anchor="middle" x="465.75" y="-14.12" font-family="sans" font-size="10.00">visualize_replicate_calls</text>
</g>
<!-- 1 -->
<g id="node2" class="node">
<title>1</title>
<path fill="none" stroke="#56d0d8" stroke-width="2" d="M536,-108C536,-108 395.5,-108 395.5,-108 389.5,-108 383.5,-102 383.5,-96 383.5,-96 383.5,-84 383.5,-84 383.5,-78 389.5,-72 395.5,-72 395.5,-72 536,-72 536,-72 542,-72 548,-78 548,-84 548,-84 548,-96 548,-96 548,-102 542,-108 536,-108"/>
<text text-anchor="middle" x="465.75" y="-86.12" font-family="sans" font-size="10.00">merge_varscan_across_replicates</text>
</g>
<!-- 1&#45;&gt;0 -->
<g id="edge1" class="edge">
<title>1&#45;&gt;0</title>
<path fill="none" stroke="grey" stroke-width="2" d="M465.75,-71.34C465.75,-64.75 465.75,-57.08 465.75,-49.67"/>
<polygon fill="grey" stroke="grey" stroke-width="2" points="469.25,-49.93 465.75,-39.93 462.25,-49.93 469.25,-49.93"/>
</g>
<!-- 2 -->
<g id="node3" class="node">
<title>2</title>
<path fill="none" stroke="#b6d856" stroke-width="2" d="M445.25,-180C445.25,-180 390.25,-180 390.25,-180 384.25,-180 378.25,-174 378.25,-168 378.25,-168 378.25,-156 378.25,-156 378.25,-150 384.25,-144 390.25,-144 390.25,-144 445.25,-144 445.25,-144 451.25,-144 457.25,-150 457.25,-156 457.25,-156 457.25,-168 457.25,-168 457.25,-174 451.25,-180 445.25,-180"/>
<text text-anchor="middle" x="417.75" y="-158.12" font-family="sans" font-size="10.00">clean_varscan</text>
</g>
<!-- 2&#45;&gt;1 -->
<g id="edge2" class="edge">
<title>2&#45;&gt;1</title>
<path fill="none" stroke="grey" stroke-width="2" d="M429.86,-143.34C434.83,-136.1 440.7,-127.53 446.24,-119.45"/>
<polygon fill="grey" stroke="grey" stroke-width="2" points="448.99,-121.62 451.76,-111.4 443.22,-117.67 448.99,-121.62"/>
</g>
<!-- 3 -->
<g id="node4" class="node">
<title>3</title>
<path fill="none" stroke="#d8d356" stroke-width="2" stroke-dasharray="5,2" d="M424.12,-252C424.12,-252 377.38,-252 377.38,-252 371.38,-252 365.38,-246 365.38,-240 365.38,-240 365.38,-228 365.38,-228 365.38,-222 371.38,-216 377.38,-216 377.38,-216 424.12,-216 424.12,-216 430.12,-216 436.12,-222 436.12,-228 436.12,-228 436.12,-240 436.12,-240 436.12,-246 430.12,-252 424.12,-252"/>
<text text-anchor="middle" x="400.75" y="-230.12" font-family="sans" font-size="10.00">call_variants</text>
</g>
<!-- 3&#45;&gt;2 -->
<g id="edge4" class="edge">
<title>3&#45;&gt;2</title>
<path fill="none" stroke="grey" stroke-width="2" d="M405.04,-215.34C406.66,-208.67 408.55,-200.89 410.37,-193.39"/>
<polygon fill="grey" stroke="grey" stroke-width="2" points="413.73,-194.39 412.69,-183.84 406.93,-192.73 413.73,-194.39"/>
</g>
<!-- 4 -->
<g id="node5" class="node">
<title>4</title>
<path fill="none" stroke="#5692d8" stroke-width="2" stroke-dasharray="5,2" d="M341.62,-324C341.62,-324 309.88,-324 309.88,-324 303.88,-324 297.88,-318 297.88,-312 297.88,-312 297.88,-300 297.88,-300 297.88,-294 303.88,-288 309.88,-288 309.88,-288 341.62,-288 341.62,-288 347.62,-288 353.62,-294 353.62,-300 353.62,-300 353.62,-312 353.62,-312 353.62,-318 347.62,-324 341.62,-324"/>
<text text-anchor="middle" x="325.75" y="-302.12" font-family="sans" font-size="10.00">samtools</text>
</g>
<!-- 4&#45;&gt;3 -->
<g id="edge5" class="edge">
<title>4&#45;&gt;3</title>
<path fill="none" stroke="grey" stroke-width="2" d="M344.68,-287.34C353.05,-279.52 363.08,-270.16 372.32,-261.53"/>
<polygon fill="grey" stroke="grey" stroke-width="2" points="374.43,-264.35 379.36,-254.97 369.66,-259.23 374.43,-264.35"/>
</g>
<!-- 5 -->
<g id="node6" class="node">
<title>5</title>
<path fill="none" stroke="#56d8c9" stroke-width="2" stroke-dasharray="5,2" d="M360.25,-396C360.25,-396 251.25,-396 251.25,-396 245.25,-396 239.25,-390 239.25,-384 239.25,-384 239.25,-372 239.25,-372 239.25,-366 245.25,-360 251.25,-360 251.25,-360 360.25,-360 360.25,-360 366.25,-360 372.25,-366 372.25,-372 372.25,-372 372.25,-384 372.25,-384 372.25,-390 366.25,-396 360.25,-396"/>
<text text-anchor="middle" x="305.75" y="-379.75" font-family="sans" font-size="10.00">mapping</text>
<text text-anchor="middle" x="305.75" y="-368.5" font-family="sans" font-size="10.00">mapping_stage: remapping</text>
</g>
<!-- 5&#45;&gt;4 -->
<g id="edge7" class="edge">
<title>5&#45;&gt;4</title>
<path fill="none" stroke="grey" stroke-width="2" d="M310.8,-359.34C312.7,-352.67 314.93,-344.89 317.07,-337.39"/>
<polygon fill="grey" stroke="grey" stroke-width="2" points="320.42,-338.39 319.8,-327.81 313.69,-336.47 320.42,-338.39"/>
</g>
<!-- 6 -->
<g id="node7" class="node">
<title>6</title>
<path fill="none" stroke="#5682d8" stroke-width="2" stroke-dasharray="5,2" d="M342.25,-911.5C342.25,-911.5 269.25,-911.5 269.25,-911.5 263.25,-911.5 257.25,-905.5 257.25,-899.5 257.25,-899.5 257.25,-881.75 257.25,-881.75 257.25,-875.75 263.25,-869.75 269.25,-869.75 269.25,-869.75 342.25,-869.75 342.25,-869.75 348.25,-869.75 354.25,-875.75 354.25,-881.75 354.25,-881.75 354.25,-899.5 354.25,-899.5 354.25,-905.5 348.25,-911.5 342.25,-911.5"/>
<text text-anchor="middle" x="305.75" y="-898" font-family="sans" font-size="10.00">trimmomatic</text>
<text text-anchor="middle" x="305.75" y="-886.75" font-family="sans" font-size="10.00">replicate: 1</text>
<text text-anchor="middle" x="305.75" y="-875.5" font-family="sans" font-size="10.00">sample: KC_com3</text>
</g>
<!-- 6&#45;&gt;5 -->
<g id="edge8" class="edge">
<title>6&#45;&gt;5</title>
<path fill="none" stroke="grey" stroke-width="2" d="M305.75,-868.99C305.75,-840.89 305.75,-789.02 305.75,-744.75 305.75,-744.75 305.75,-744.75 305.75,-526.75 305.75,-486.23 305.75,-439.45 305.75,-409.57"/>
<polygon fill="grey" stroke="grey" stroke-width="2" points="309.25,-409.77 305.75,-399.77 302.25,-409.77 309.25,-409.77"/>
</g>
<!-- 21 -->
<g id="node22" class="node">
<title>21</title>
<path fill="none" stroke="#56d8c9" stroke-width="2" stroke-dasharray="5,2" d="M455,-833.75C455,-833.75 368.5,-833.75 368.5,-833.75 362.5,-833.75 356.5,-827.75 356.5,-821.75 356.5,-821.75 356.5,-809.75 356.5,-809.75 356.5,-803.75 362.5,-797.75 368.5,-797.75 368.5,-797.75 455,-797.75 455,-797.75 461,-797.75 467,-803.75 467,-809.75 467,-809.75 467,-821.75 467,-821.75 467,-827.75 461,-833.75 455,-833.75"/>
<text text-anchor="middle" x="411.75" y="-817.5" font-family="sans" font-size="10.00">mapping</text>
<text text-anchor="middle" x="411.75" y="-806.25" font-family="sans" font-size="10.00">mapping_stage: initial</text>
</g>
<!-- 6&#45;&gt;21 -->
<g id="edge25" class="edge">
<title>6&#45;&gt;21</title>
<path fill="none" stroke="grey" stroke-width="2" d="M335.84,-868.94C348.18,-860.46 362.57,-850.56 375.48,-841.69"/>
<polygon fill="grey" stroke="grey" stroke-width="2" points="377.15,-844.79 383.41,-836.24 373.18,-839.02 377.15,-844.79"/>
</g>
<!-- 7 -->
<g id="node8" class="node">
<title>7</title>
<path fill="none" stroke="#56d8b1" stroke-width="2" stroke-dasharray="5,2" d="M470.75,-470.88C470.75,-470.88 440.75,-470.88 440.75,-470.88 434.75,-470.88 428.75,-464.88 428.75,-458.88 428.75,-458.88 428.75,-446.88 428.75,-446.88 428.75,-440.88 434.75,-434.88 440.75,-434.88 440.75,-434.88 470.75,-434.88 470.75,-434.88 476.75,-434.88 482.75,-440.88 482.75,-446.88 482.75,-446.88 482.75,-458.88 482.75,-458.88 482.75,-464.88 476.75,-470.88 470.75,-470.88"/>
<text text-anchor="middle" x="455.75" y="-449" font-family="sans" font-size="10.00">index</text>
</g>
<!-- 7&#45;&gt;5 -->
<g id="edge9" class="edge">
<title>7&#45;&gt;5</title>
<path fill="none" stroke="grey" stroke-width="2" d="M427.89,-438.34C407.21,-428.29 378.49,-414.34 354.1,-402.49"/>
<polygon fill="grey" stroke="grey" stroke-width="2" points="355.77,-399.41 345.25,-398.19 352.71,-405.71 355.77,-399.41"/>
</g>
<!-- 26 -->
<g id="node27" class="node">
<title>26</title>
<path fill="none" stroke="#56d8c9" stroke-width="2" d="M581.25,-396C581.25,-396 472.25,-396 472.25,-396 466.25,-396 460.25,-390 460.25,-384 460.25,-384 460.25,-372 460.25,-372 460.25,-366 466.25,-360 472.25,-360 472.25,-360 581.25,-360 581.25,-360 587.25,-360 593.25,-366 593.25,-372 593.25,-372 593.25,-384 593.25,-384 593.25,-390 587.25,-396 581.25,-396"/>
<text text-anchor="middle" x="526.75" y="-379.75" font-family="sans" font-size="10.00">mapping</text>
<text text-anchor="middle" x="526.75" y="-368.5" font-family="sans" font-size="10.00">mapping_stage: remapping</text>
</g>
<!-- 7&#45;&gt;26 -->
<g id="edge33" class="edge">
<title>7&#45;&gt;26</title>
<path fill="none" stroke="grey" stroke-width="2" d="M472.94,-434.23C481.1,-425.86 491.04,-415.65 500.15,-406.3"/>
<polygon fill="grey" stroke="grey" stroke-width="2" points="502.64,-408.76 507.12,-399.15 497.63,-403.87 502.64,-408.76"/>
</g>
<!-- 8 -->
<g id="node9" class="node">
<title>8</title>
<path fill="none" stroke="#d8ac56" stroke-width="2" stroke-dasharray="5,2" d="M503.12,-545.75C503.12,-545.75 408.38,-545.75 408.38,-545.75 402.38,-545.75 396.38,-539.75 396.38,-533.75 396.38,-533.75 396.38,-521.75 396.38,-521.75 396.38,-515.75 402.38,-509.75 408.38,-509.75 408.38,-509.75 503.12,-509.75 503.12,-509.75 509.12,-509.75 515.12,-515.75 515.12,-521.75 515.12,-521.75 515.12,-533.75 515.12,-533.75 515.12,-539.75 509.12,-545.75 503.12,-545.75"/>
<text text-anchor="middle" x="455.75" y="-523.88" font-family="sans" font-size="10.00">build_sample_reference</text>
</g>
<!-- 8&#45;&gt;3 -->
<g id="edge6" class="edge">
<title>8&#45;&gt;3</title>
<path fill="none" stroke="grey" stroke-width="2" d="M440.18,-508.91C432.64,-499.19 424.25,-486.55 419.75,-473.75 394.69,-402.47 395.63,-312.1 398.29,-265.65"/>
<polygon fill="grey" stroke="grey" stroke-width="2" points="401.78,-265.94 398.94,-255.73 394.79,-265.48 401.78,-265.94"/>
</g>
<!-- 8&#45;&gt;7 -->
<g id="edge10" class="edge">
<title>8&#45;&gt;7</title>
<path fill="none" stroke="grey" stroke-width="2" d="M455.75,-509.11C455.75,-501.79 455.75,-493.07 455.75,-484.76"/>
<polygon fill="grey" stroke="grey" stroke-width="2" points="459.25,-484.89 455.75,-474.89 452.25,-484.89 459.25,-484.89"/>
</g>
<!-- 24 -->
<g id="node25" class="node">
<title>24</title>
<path fill="none" stroke="#d8d356" stroke-width="2" d="M550.12,-252C550.12,-252 503.38,-252 503.38,-252 497.38,-252 491.38,-246 491.38,-240 491.38,-240 491.38,-228 491.38,-228 491.38,-222 497.38,-216 503.38,-216 503.38,-216 550.12,-216 550.12,-216 556.12,-216 562.12,-222 562.12,-228 562.12,-228 562.12,-240 562.12,-240 562.12,-246 556.12,-252 550.12,-252"/>
<text text-anchor="middle" x="526.75" y="-230.12" font-family="sans" font-size="10.00">call_variants</text>
</g>
<!-- 8&#45;&gt;24 -->
<g id="edge30" class="edge">
<title>8&#45;&gt;24</title>
<path fill="none" stroke="grey" stroke-width="2" d="M515.83,-522.19C548.74,-516.27 586.95,-503.03 607.75,-473.75 655.35,-406.74 589.53,-309.56 551.07,-262.54"/>
<polygon fill="grey" stroke="grey" stroke-width="2" points="553.93,-260.5 544.82,-255.09 548.56,-265 553.93,-260.5"/>
</g>
<!-- 9 -->
<g id="node10" class="node">
<title>9</title>
<path fill="none" stroke="#d8bc56" stroke-width="2" stroke-dasharray="5,2" d="M485.5,-617.75C485.5,-617.75 426,-617.75 426,-617.75 420,-617.75 414,-611.75 414,-605.75 414,-605.75 414,-593.75 414,-593.75 414,-587.75 420,-581.75 426,-581.75 426,-581.75 485.5,-581.75 485.5,-581.75 491.5,-581.75 497.5,-587.75 497.5,-593.75 497.5,-593.75 497.5,-605.75 497.5,-605.75 497.5,-611.75 491.5,-617.75 485.5,-617.75"/>
<text text-anchor="middle" x="455.75" y="-595.88" font-family="sans" font-size="10.00">call_consensus</text>
</g>
<!-- 9&#45;&gt;8 -->
<g id="edge11" class="edge">
<title>9&#45;&gt;8</title>
<path fill="none" stroke="grey" stroke-width="2" d="M455.75,-581.09C455.75,-574.5 455.75,-566.83 455.75,-559.42"/>
<polygon fill="grey" stroke="grey" stroke-width="2" points="459.25,-559.68 455.75,-549.68 452.25,-559.68 459.25,-559.68"/>
</g>
<!-- 10 -->
<g id="node11" class="node">
<title>10</title>
<path fill="none" stroke="#d89556" stroke-width="2" stroke-dasharray="5,2" d="M544.75,-983.5C544.75,-983.5 444.75,-983.5 444.75,-983.5 438.75,-983.5 432.75,-977.5 432.75,-971.5 432.75,-971.5 432.75,-959.5 432.75,-959.5 432.75,-953.5 438.75,-947.5 444.75,-947.5 444.75,-947.5 544.75,-947.5 544.75,-947.5 550.75,-947.5 556.75,-953.5 556.75,-959.5 556.75,-959.5 556.75,-971.5 556.75,-971.5 556.75,-977.5 550.75,-983.5 544.75,-983.5"/>
<text text-anchor="middle" x="494.75" y="-961.62" font-family="sans" font-size="10.00">build_genbank_reference</text>
</g>
<!-- 10&#45;&gt;9 -->
<g id="edge12" class="edge">
<title>10&#45;&gt;9</title>
<path fill="none" stroke="grey" stroke-width="2" d="M494.75,-946.76C494.75,-919.02 494.75,-863.69 494.75,-816.75 494.75,-816.75 494.75,-816.75 494.75,-742.75 494.75,-702.84 480.25,-658.81 468.93,-630.52"/>
<polygon fill="grey" stroke="grey" stroke-width="2" points="472.25,-629.38 465.18,-621.49 465.79,-632.07 472.25,-629.38"/>
</g>
<!-- 19 -->
<g id="node20" class="node">
<title>19</title>
<path fill="none" stroke="#d8d356" stroke-width="2" stroke-dasharray="5,2" d="M455.12,-689.75C455.12,-689.75 408.38,-689.75 408.38,-689.75 402.38,-689.75 396.38,-683.75 396.38,-677.75 396.38,-677.75 396.38,-665.75 396.38,-665.75 396.38,-659.75 402.38,-653.75 408.38,-653.75 408.38,-653.75 455.12,-653.75 455.12,-653.75 461.12,-653.75 467.12,-659.75 467.12,-665.75 467.12,-665.75 467.12,-677.75 467.12,-677.75 467.12,-683.75 461.12,-689.75 455.12,-689.75"/>
<text text-anchor="middle" x="431.75" y="-667.88" font-family="sans" font-size="10.00">call_variants</text>
</g>
<!-- 10&#45;&gt;19 -->
<g id="edge23" class="edge">
<title>10&#45;&gt;19</title>
<path fill="none" stroke="grey" stroke-width="2" d="M500.72,-946.58C503.79,-936.42 507.21,-923.39 508.75,-911.5 511.14,-893.1 511.84,-888.05 508.75,-869.75 498.21,-807.29 466.92,-739.56 447.62,-702.02"/>
<polygon fill="grey" stroke="grey" stroke-width="2" points="450.73,-700.41 442.99,-693.18 444.53,-703.66 450.73,-700.41"/>
</g>
<!-- 22 -->
<g id="node23" class="node">
<title>22</title>
<path fill="none" stroke="#56d8b1" stroke-width="2" stroke-dasharray="5,2" d="M454.75,-908.62C454.75,-908.62 384.75,-908.62 384.75,-908.62 378.75,-908.62 372.75,-902.62 372.75,-896.62 372.75,-896.62 372.75,-884.62 372.75,-884.62 372.75,-878.62 378.75,-872.62 384.75,-872.62 384.75,-872.62 454.75,-872.62 454.75,-872.62 460.75,-872.62 466.75,-878.62 466.75,-884.62 466.75,-884.62 466.75,-896.62 466.75,-896.62 466.75,-902.62 460.75,-908.62 454.75,-908.62"/>
<text text-anchor="middle" x="419.75" y="-892.38" font-family="sans" font-size="10.00">index</text>
<text text-anchor="middle" x="419.75" y="-881.12" font-family="sans" font-size="10.00">sample: reference</text>
</g>
<!-- 10&#45;&gt;22 -->
<g id="edge27" class="edge">
<title>10&#45;&gt;22</title>
<path fill="none" stroke="grey" stroke-width="2" d="M476.59,-946.86C467.88,-938.39 457.25,-928.06 447.55,-918.63"/>
<polygon fill="grey" stroke="grey" stroke-width="2" points="450.04,-916.18 440.43,-911.72 445.16,-921.2 450.04,-916.18"/>
</g>
<!-- 11 -->
<g id="node12" class="node">
<title>11</title>
<path fill="none" stroke="#61d856" stroke-width="2" stroke-dasharray="5,2" d="M95.5,-1055.5C95.5,-1055.5 12,-1055.5 12,-1055.5 6,-1055.5 0,-1049.5 0,-1043.5 0,-1043.5 0,-1031.5 0,-1031.5 0,-1025.5 6,-1019.5 12,-1019.5 12,-1019.5 95.5,-1019.5 95.5,-1019.5 101.5,-1019.5 107.5,-1025.5 107.5,-1031.5 107.5,-1031.5 107.5,-1043.5 107.5,-1043.5 107.5,-1049.5 101.5,-1055.5 95.5,-1055.5"/>
<text text-anchor="middle" x="53.75" y="-1039.25" font-family="sans" font-size="10.00">fetch_reference_data</text>
<text text-anchor="middle" x="53.75" y="-1028" font-family="sans" font-size="10.00">segment: ha</text>
</g>
<!-- 11&#45;&gt;10 -->
<g id="edge14" class="edge">
<title>11&#45;&gt;10</title>
<path fill="none" stroke="grey" stroke-width="2" d="M108.29,-1021.34C111.14,-1020.68 113.98,-1020.07 116.75,-1019.5 220.63,-998.29 342.31,-982.89 418.97,-974.32"/>
<polygon fill="grey" stroke="grey" stroke-width="2" points="419.24,-977.81 428.8,-973.24 418.47,-970.85 419.24,-977.81"/>
</g>
<!-- 12 -->
<g id="node13" class="node">
<title>12</title>
<path fill="none" stroke="#61d856" stroke-width="2" stroke-dasharray="5,2" d="M221.5,-1055.5C221.5,-1055.5 138,-1055.5 138,-1055.5 132,-1055.5 126,-1049.5 126,-1043.5 126,-1043.5 126,-1031.5 126,-1031.5 126,-1025.5 132,-1019.5 138,-1019.5 138,-1019.5 221.5,-1019.5 221.5,-1019.5 227.5,-1019.5 233.5,-1025.5 233.5,-1031.5 233.5,-1031.5 233.5,-1043.5 233.5,-1043.5 233.5,-1049.5 227.5,-1055.5 221.5,-1055.5"/>
<text text-anchor="middle" x="179.75" y="-1039.25" font-family="sans" font-size="10.00">fetch_reference_data</text>
<text text-anchor="middle" x="179.75" y="-1028" font-family="sans" font-size="10.00">segment: m</text>
</g>
<!-- 12&#45;&gt;10 -->
<g id="edge15" class="edge">
<title>12&#45;&gt;10</title>
<path fill="none" stroke="grey" stroke-width="2" d="M234.34,-1021.57C237.18,-1020.85 240,-1020.16 242.75,-1019.5 301.74,-1005.35 368.99,-991.31 419.18,-981.24"/>
<polygon fill="grey" stroke="grey" stroke-width="2" points="419.79,-984.69 428.91,-979.3 418.42,-977.82 419.79,-984.69"/>
</g>
<!-- 13 -->
<g id="node14" class="node">
<title>13</title>
<path fill="none" stroke="#61d856" stroke-width="2" stroke-dasharray="5,2" d="M347.5,-1055.5C347.5,-1055.5 264,-1055.5 264,-1055.5 258,-1055.5 252,-1049.5 252,-1043.5 252,-1043.5 252,-1031.5 252,-1031.5 252,-1025.5 258,-1019.5 264,-1019.5 264,-1019.5 347.5,-1019.5 347.5,-1019.5 353.5,-1019.5 359.5,-1025.5 359.5,-1031.5 359.5,-1031.5 359.5,-1043.5 359.5,-1043.5 359.5,-1049.5 353.5,-1055.5 347.5,-1055.5"/>
<text text-anchor="middle" x="305.75" y="-1039.25" font-family="sans" font-size="10.00">fetch_reference_data</text>
<text text-anchor="middle" x="305.75" y="-1028" font-family="sans" font-size="10.00">segment: na</text>
</g>
<!-- 13&#45;&gt;10 -->
<g id="edge16" class="edge">
<title>13&#45;&gt;10</title>
<path fill="none" stroke="grey" stroke-width="2" d="M353.93,-1018.65C378.39,-1009.6 408.34,-998.51 434.32,-988.88"/>
<polygon fill="grey" stroke="grey" stroke-width="2" points="435.33,-992.24 443.49,-985.49 432.9,-985.68 435.33,-992.24"/>
</g>
<!-- 14 -->
<g id="node15" class="node">
<title>14</title>
<path fill="none" stroke="#61d856" stroke-width="2" stroke-dasharray="5,2" d="M473.5,-1055.5C473.5,-1055.5 390,-1055.5 390,-1055.5 384,-1055.5 378,-1049.5 378,-1043.5 378,-1043.5 378,-1031.5 378,-1031.5 378,-1025.5 384,-1019.5 390,-1019.5 390,-1019.5 473.5,-1019.5 473.5,-1019.5 479.5,-1019.5 485.5,-1025.5 485.5,-1031.5 485.5,-1031.5 485.5,-1043.5 485.5,-1043.5 485.5,-1049.5 479.5,-1055.5 473.5,-1055.5"/>
<text text-anchor="middle" x="431.75" y="-1039.25" font-family="sans" font-size="10.00">fetch_reference_data</text>
<text text-anchor="middle" x="431.75" y="-1028" font-family="sans" font-size="10.00">segment: np</text>
</g>
<!-- 14&#45;&gt;10 -->
<g id="edge17" class="edge">
<title>14&#45;&gt;10</title>
<path fill="none" stroke="grey" stroke-width="2" d="M447.65,-1018.84C454.46,-1011.27 462.57,-1002.25 470.13,-993.85"/>
<polygon fill="grey" stroke="grey" stroke-width="2" points="472.53,-996.43 476.61,-986.65 467.32,-991.74 472.53,-996.43"/>
</g>
<!-- 15 -->
<g id="node16" class="node">
<title>15</title>
<path fill="none" stroke="#61d856" stroke-width="2" stroke-dasharray="5,2" d="M599.5,-1055.5C599.5,-1055.5 516,-1055.5 516,-1055.5 510,-1055.5 504,-1049.5 504,-1043.5 504,-1043.5 504,-1031.5 504,-1031.5 504,-1025.5 510,-1019.5 516,-1019.5 516,-1019.5 599.5,-1019.5 599.5,-1019.5 605.5,-1019.5 611.5,-1025.5 611.5,-1031.5 611.5,-1031.5 611.5,-1043.5 611.5,-1043.5 611.5,-1049.5 605.5,-1055.5 599.5,-1055.5"/>
<text text-anchor="middle" x="557.75" y="-1039.25" font-family="sans" font-size="10.00">fetch_reference_data</text>
<text text-anchor="middle" x="557.75" y="-1028" font-family="sans" font-size="10.00">segment: ns</text>
</g>
<!-- 15&#45;&gt;10 -->
<g id="edge18" class="edge">
<title>15&#45;&gt;10</title>
<path fill="none" stroke="grey" stroke-width="2" d="M541.85,-1018.84C535.04,-1011.27 526.93,-1002.25 519.37,-993.85"/>
<polygon fill="grey" stroke="grey" stroke-width="2" points="522.18,-991.74 512.89,-986.65 516.97,-996.43 522.18,-991.74"/>
</g>
<!-- 16 -->
<g id="node17" class="node">
<title>16</title>
<path fill="none" stroke="#61d856" stroke-width="2" stroke-dasharray="5,2" d="M725.5,-1055.5C725.5,-1055.5 642,-1055.5 642,-1055.5 636,-1055.5 630,-1049.5 630,-1043.5 630,-1043.5 630,-1031.5 630,-1031.5 630,-1025.5 636,-1019.5 642,-1019.5 642,-1019.5 725.5,-1019.5 725.5,-1019.5 731.5,-1019.5 737.5,-1025.5 737.5,-1031.5 737.5,-1031.5 737.5,-1043.5 737.5,-1043.5 737.5,-1049.5 731.5,-1055.5 725.5,-1055.5"/>
<text text-anchor="middle" x="683.75" y="-1039.25" font-family="sans" font-size="10.00">fetch_reference_data</text>
<text text-anchor="middle" x="683.75" y="-1028" font-family="sans" font-size="10.00">segment: pa</text>
</g>
<!-- 16&#45;&gt;10 -->
<g id="edge19" class="edge">
<title>16&#45;&gt;10</title>
<path fill="none" stroke="grey" stroke-width="2" d="M635.57,-1018.65C611.11,-1009.6 581.16,-998.51 555.18,-988.88"/>
<polygon fill="grey" stroke="grey" stroke-width="2" points="556.6,-985.68 546.01,-985.49 554.17,-992.24 556.6,-985.68"/>
</g>
<!-- 17 -->
<g id="node18" class="node">
<title>17</title>
<path fill="none" stroke="#61d856" stroke-width="2" stroke-dasharray="5,2" d="M851.5,-1055.5C851.5,-1055.5 768,-1055.5 768,-1055.5 762,-1055.5 756,-1049.5 756,-1043.5 756,-1043.5 756,-1031.5 756,-1031.5 756,-1025.5 762,-1019.5 768,-1019.5 768,-1019.5 851.5,-1019.5 851.5,-1019.5 857.5,-1019.5 863.5,-1025.5 863.5,-1031.5 863.5,-1031.5 863.5,-1043.5 863.5,-1043.5 863.5,-1049.5 857.5,-1055.5 851.5,-1055.5"/>
<text text-anchor="middle" x="809.75" y="-1039.25" font-family="sans" font-size="10.00">fetch_reference_data</text>
<text text-anchor="middle" x="809.75" y="-1028" font-family="sans" font-size="10.00">segment: pb1</text>
</g>
<!-- 17&#45;&gt;10 -->
<g id="edge20" class="edge">
<title>17&#45;&gt;10</title>
<path fill="none" stroke="grey" stroke-width="2" d="M755.16,-1021.57C752.32,-1020.85 749.5,-1020.16 746.75,-1019.5 687.76,-1005.35 620.51,-991.31 570.32,-981.24"/>
<polygon fill="grey" stroke="grey" stroke-width="2" points="571.08,-977.82 560.59,-979.3 569.71,-984.69 571.08,-977.82"/>
</g>
<!-- 18 -->
<g id="node19" class="node">
<title>18</title>
<path fill="none" stroke="#61d856" stroke-width="2" stroke-dasharray="5,2" d="M977.5,-1055.5C977.5,-1055.5 894,-1055.5 894,-1055.5 888,-1055.5 882,-1049.5 882,-1043.5 882,-1043.5 882,-1031.5 882,-1031.5 882,-1025.5 888,-1019.5 894,-1019.5 894,-1019.5 977.5,-1019.5 977.5,-1019.5 983.5,-1019.5 989.5,-1025.5 989.5,-1031.5 989.5,-1031.5 989.5,-1043.5 989.5,-1043.5 989.5,-1049.5 983.5,-1055.5 977.5,-1055.5"/>
<text text-anchor="middle" x="935.75" y="-1039.25" font-family="sans" font-size="10.00">fetch_reference_data</text>
<text text-anchor="middle" x="935.75" y="-1028" font-family="sans" font-size="10.00">segment: pb2</text>
</g>
<!-- 18&#45;&gt;10 -->
<g id="edge21" class="edge">
<title>18&#45;&gt;10</title>
<path fill="none" stroke="grey" stroke-width="2" d="M881.21,-1021.34C878.36,-1020.68 875.52,-1020.07 872.75,-1019.5 768.87,-998.29 647.19,-982.89 570.53,-974.32"/>
<polygon fill="grey" stroke="grey" stroke-width="2" points="571.03,-970.85 560.7,-973.24 570.26,-977.81 571.03,-970.85"/>
</g>
<!-- 19&#45;&gt;9 -->
<g id="edge13" class="edge">
<title>19&#45;&gt;9</title>
<path fill="none" stroke="grey" stroke-width="2" d="M437.81,-653.09C440.12,-646.34 442.83,-638.44 445.43,-630.86"/>
<polygon fill="grey" stroke="grey" stroke-width="2" points="448.7,-632.11 448.63,-621.52 442.08,-629.84 448.7,-632.11"/>
</g>
<!-- 20 -->
<g id="node21" class="node">
<title>20</title>
<path fill="none" stroke="#5692d8" stroke-width="2" stroke-dasharray="5,2" d="M437.62,-761.75C437.62,-761.75 405.88,-761.75 405.88,-761.75 399.88,-761.75 393.88,-755.75 393.88,-749.75 393.88,-749.75 393.88,-737.75 393.88,-737.75 393.88,-731.75 399.88,-725.75 405.88,-725.75 405.88,-725.75 437.62,-725.75 437.62,-725.75 443.62,-725.75 449.62,-731.75 449.62,-737.75 449.62,-737.75 449.62,-749.75 449.62,-749.75 449.62,-755.75 443.62,-761.75 437.62,-761.75"/>
<text text-anchor="middle" x="421.75" y="-739.88" font-family="sans" font-size="10.00">samtools</text>
</g>
<!-- 20&#45;&gt;19 -->
<g id="edge22" class="edge">
<title>20&#45;&gt;19</title>
<path fill="none" stroke="grey" stroke-width="2" d="M424.27,-725.09C425.21,-718.5 426.31,-710.83 427.37,-703.42"/>
<polygon fill="grey" stroke="grey" stroke-width="2" points="430.82,-704.04 428.76,-693.65 423.89,-703.05 430.82,-704.04"/>
</g>
<!-- 21&#45;&gt;20 -->
<g id="edge24" class="edge">
<title>21&#45;&gt;20</title>
<path fill="none" stroke="grey" stroke-width="2" d="M414.27,-797.09C415.21,-790.5 416.31,-782.83 417.37,-775.42"/>
<polygon fill="grey" stroke="grey" stroke-width="2" points="420.82,-776.04 418.76,-765.65 413.89,-775.05 420.82,-776.04"/>
</g>
<!-- 22&#45;&gt;21 -->
<g id="edge26" class="edge">
<title>22&#45;&gt;21</title>
<path fill="none" stroke="grey" stroke-width="2" d="M417.81,-871.98C417.01,-864.66 416.05,-855.95 415.14,-847.63"/>
<polygon fill="grey" stroke="grey" stroke-width="2" points="418.63,-847.3 414.05,-837.74 411.67,-848.07 418.63,-847.3"/>
</g>
<!-- 23 -->
<g id="node24" class="node">
<title>23</title>
<path fill="none" stroke="#b6d856" stroke-width="2" d="M550.25,-180C550.25,-180 495.25,-180 495.25,-180 489.25,-180 483.25,-174 483.25,-168 483.25,-168 483.25,-156 483.25,-156 483.25,-150 489.25,-144 495.25,-144 495.25,-144 550.25,-144 550.25,-144 556.25,-144 562.25,-150 562.25,-156 562.25,-156 562.25,-168 562.25,-168 562.25,-174 556.25,-180 550.25,-180"/>
<text text-anchor="middle" x="522.75" y="-158.12" font-family="sans" font-size="10.00">clean_varscan</text>
</g>
<!-- 23&#45;&gt;1 -->
<g id="edge3" class="edge">
<title>23&#45;&gt;1</title>
<path fill="none" stroke="grey" stroke-width="2" d="M508.37,-143.34C502.34,-135.93 495.18,-127.14 488.47,-118.9"/>
<polygon fill="grey" stroke="grey" stroke-width="2" points="491.27,-116.79 482.24,-111.25 485.84,-121.21 491.27,-116.79"/>
</g>
<!-- 24&#45;&gt;23 -->
<g id="edge28" class="edge">
<title>24&#45;&gt;23</title>
<path fill="none" stroke="grey" stroke-width="2" d="M525.74,-215.34C525.36,-208.75 524.93,-201.08 524.5,-193.67"/>
<polygon fill="grey" stroke="grey" stroke-width="2" points="528.01,-193.71 523.95,-183.92 521.02,-194.11 528.01,-193.71"/>
</g>
<!-- 25 -->
<g id="node26" class="node">
<title>25</title>
<path fill="none" stroke="#5692d8" stroke-width="2" d="M542.62,-324C542.62,-324 510.88,-324 510.88,-324 504.88,-324 498.88,-318 498.88,-312 498.88,-312 498.88,-300 498.88,-300 498.88,-294 504.88,-288 510.88,-288 510.88,-288 542.62,-288 542.62,-288 548.62,-288 554.62,-294 554.62,-300 554.62,-300 554.62,-312 554.62,-312 554.62,-318 548.62,-324 542.62,-324"/>
<text text-anchor="middle" x="526.75" y="-302.12" font-family="sans" font-size="10.00">samtools</text>
</g>
<!-- 25&#45;&gt;24 -->
<g id="edge29" class="edge">
<title>25&#45;&gt;24</title>
<path fill="none" stroke="grey" stroke-width="2" d="M526.75,-287.34C526.75,-280.75 526.75,-273.08 526.75,-265.67"/>
<polygon fill="grey" stroke="grey" stroke-width="2" points="530.25,-265.93 526.75,-255.93 523.25,-265.93 530.25,-265.93"/>
</g>
<!-- 26&#45;&gt;25 -->
<g id="edge31" class="edge">
<title>26&#45;&gt;25</title>
<path fill="none" stroke="grey" stroke-width="2" d="M526.75,-359.34C526.75,-352.75 526.75,-345.08 526.75,-337.67"/>
<polygon fill="grey" stroke="grey" stroke-width="2" points="530.25,-337.93 526.75,-327.93 523.25,-337.93 530.25,-337.93"/>
</g>
<!-- 27 -->
<g id="node28" class="node">
<title>27</title>
<path fill="none" stroke="#5682d8" stroke-width="2" d="M586.25,-473.75C586.25,-473.75 513.25,-473.75 513.25,-473.75 507.25,-473.75 501.25,-467.75 501.25,-461.75 501.25,-461.75 501.25,-444 501.25,-444 501.25,-438 507.25,-432 513.25,-432 513.25,-432 586.25,-432 586.25,-432 592.25,-432 598.25,-438 598.25,-444 598.25,-444 598.25,-461.75 598.25,-461.75 598.25,-467.75 592.25,-473.75 586.25,-473.75"/>
<text text-anchor="middle" x="549.75" y="-460.25" font-family="sans" font-size="10.00">trimmomatic</text>
<text text-anchor="middle" x="549.75" y="-449" font-family="sans" font-size="10.00">replicate: 2</text>
<text text-anchor="middle" x="549.75" y="-437.75" font-family="sans" font-size="10.00">sample: KC_com3</text>
</g>
<!-- 27&#45;&gt;26 -->
<g id="edge32" class="edge">
<title>27&#45;&gt;26</title>
<path fill="none" stroke="grey" stroke-width="2" d="M543.22,-431.19C541.04,-424.26 538.55,-416.4 536.19,-408.92"/>
<polygon fill="grey" stroke="grey" stroke-width="2" points="539.54,-407.9 533.19,-399.42 532.87,-410.01 539.54,-407.9"/>
</g>
</g>
</svg>
