<?xml version="1.0" encoding="UTF-8" standalone="no"?>
<!DOCTYPE svg PUBLIC "-//W3C//DTD SVG 1.1//EN"
 "http://www.w3.org/Graphics/SVG/1.1/DTD/svg11.dtd">
<!-- Generated by graphviz version 12.2.0 (20241103.1931)
 -->
<!-- Title: snakemake_dag Pages: 1 -->
<svg width="998pt" height="986pt"
 viewBox="0.00 0.00 997.50 985.75" xmlns="http://www.w3.org/2000/svg" xmlns:xlink="http://www.w3.org/1999/xlink">
<g id="graph0" class="graph" transform="scale(1 1) rotate(0) translate(4 981.75)">
<title>snakemake_dag</title>
<polygon fill="white" stroke="none" points="-4,4 -4,-981.75 993.5,-981.75 993.5,4 -4,4"/>
<!-- 0 -->
<g id="node1" class="node">
<title>0</title>
<path fill="none" stroke="#56a9d8" stroke-width="2" d="M564.75,-36C564.75,-36 506.75,-36 506.75,-36 500.75,-36 494.75,-30 494.75,-24 494.75,-24 494.75,-12 494.75,-12 494.75,-6 500.75,0 506.75,0 506.75,0 564.75,0 564.75,0 570.75,0 576.75,-6 576.75,-12 576.75,-12 576.75,-24 576.75,-24 576.75,-30 570.75,-36 564.75,-36"/>
<text text-anchor="middle" x="535.75" y="-19.75" font-family="sans" font-size="10.00">pluck_segment</text>
<text text-anchor="middle" x="535.75" y="-8.5" font-family="sans" font-size="10.00">segment: ha</text>
</g>
<!-- 1 -->
<g id="node2" class="node">
<title>1</title>
<path fill="none" stroke="#d8bc56" stroke-width="2" d="M565.5,-108C565.5,-108 506,-108 506,-108 500,-108 494,-102 494,-96 494,-96 494,-84 494,-84 494,-78 500,-72 506,-72 506,-72 565.5,-72 565.5,-72 571.5,-72 577.5,-78 577.5,-84 577.5,-84 577.5,-96 577.5,-96 577.5,-102 571.5,-108 565.5,-108"/>
<text text-anchor="middle" x="535.75" y="-86.12" font-family="sans" font-size="10.00">call_consensus</text>
</g>
<!-- 1&#45;&gt;0 -->
<g id="edge1" class="edge">
<title>1&#45;&gt;0</title>
<path fill="none" stroke="grey" stroke-width="2" d="M535.75,-71.34C535.75,-64.75 535.75,-57.08 535.75,-49.67"/>
<polygon fill="grey" stroke="grey" stroke-width="2" points="539.25,-49.93 535.75,-39.93 532.25,-49.93 539.25,-49.93"/>
</g>
<!-- 2 -->
<g id="node3" class="node">
<title>2</title>
<path fill="none" stroke="#d8ac56" stroke-width="2" d="M584.12,-468C584.12,-468 489.38,-468 489.38,-468 483.38,-468 477.38,-462 477.38,-456 477.38,-456 477.38,-444 477.38,-444 477.38,-438 483.38,-432 489.38,-432 489.38,-432 584.12,-432 584.12,-432 590.12,-432 596.12,-438 596.12,-444 596.12,-444 596.12,-456 596.12,-456 596.12,-462 590.12,-468 584.12,-468"/>
<text text-anchor="middle" x="536.75" y="-446.12" font-family="sans" font-size="10.00">build_sample_reference</text>
</g>
<!-- 2&#45;&gt;1 -->
<g id="edge2" class="edge">
<title>2&#45;&gt;1</title>
<path fill="none" stroke="grey" stroke-width="2" d="M530.12,-431.36C520.75,-404.79 504.75,-352.74 504.75,-307 504.75,-307 504.75,-307 504.75,-233 504.75,-193.57 516.3,-149.37 525.3,-120.92"/>
<polygon fill="grey" stroke="grey" stroke-width="2" points="528.58,-122.13 528.38,-111.54 521.93,-119.94 528.58,-122.13"/>
</g>
<!-- 18 -->
<g id="node19" class="node">
<title>18</title>
<path fill="none" stroke="#d8d356" stroke-width="2" d="M591.12,-180C591.12,-180 544.38,-180 544.38,-180 538.38,-180 532.38,-174 532.38,-168 532.38,-168 532.38,-156 532.38,-156 532.38,-150 538.38,-144 544.38,-144 544.38,-144 591.12,-144 591.12,-144 597.12,-144 603.12,-150 603.12,-156 603.12,-156 603.12,-168 603.12,-168 603.12,-174 597.12,-180 591.12,-180"/>
<text text-anchor="middle" x="567.75" y="-158.12" font-family="sans" font-size="10.00">call_variants</text>
</g>
<!-- 2&#45;&gt;18 -->
<g id="edge22" class="edge">
<title>2&#45;&gt;18</title>
<path fill="none" stroke="grey" stroke-width="2" d="M538.69,-431.11C543.84,-383.56 557.93,-253.6 564.41,-193.83"/>
<polygon fill="grey" stroke="grey" stroke-width="2" points="567.89,-194.21 565.49,-183.89 560.93,-193.46 567.89,-194.21"/>
</g>
<!-- 21 -->
<g id="node22" class="node">
<title>21</title>
<path fill="none" stroke="#56d8b1" stroke-width="2" d="M620.75,-396C620.75,-396 590.75,-396 590.75,-396 584.75,-396 578.75,-390 578.75,-384 578.75,-384 578.75,-372 578.75,-372 578.75,-366 584.75,-360 590.75,-360 590.75,-360 620.75,-360 620.75,-360 626.75,-360 632.75,-366 632.75,-372 632.75,-372 632.75,-384 632.75,-384 632.75,-390 626.75,-396 620.75,-396"/>
<text text-anchor="middle" x="605.75" y="-374.12" font-family="sans" font-size="10.00">index</text>
</g>
<!-- 2&#45;&gt;21 -->
<g id="edge26" class="edge">
<title>2&#45;&gt;21</title>
<path fill="none" stroke="grey" stroke-width="2" d="M554.16,-431.34C561.7,-423.69 570.7,-414.56 579.06,-406.08"/>
<polygon fill="grey" stroke="grey" stroke-width="2" points="581.45,-408.64 585.98,-399.06 576.47,-403.72 581.45,-408.64"/>
</g>
<!-- 3 -->
<g id="node4" class="node">
<title>3</title>
<path fill="none" stroke="#d8bc56" stroke-width="2" d="M551.5,-540C551.5,-540 492,-540 492,-540 486,-540 480,-534 480,-528 480,-528 480,-516 480,-516 480,-510 486,-504 492,-504 492,-504 551.5,-504 551.5,-504 557.5,-504 563.5,-510 563.5,-516 563.5,-516 563.5,-528 563.5,-528 563.5,-534 557.5,-540 551.5,-540"/>
<text text-anchor="middle" x="521.75" y="-518.12" font-family="sans" font-size="10.00">call_consensus</text>
</g>
<!-- 3&#45;&gt;2 -->
<g id="edge4" class="edge">
<title>3&#45;&gt;2</title>
<path fill="none" stroke="grey" stroke-width="2" d="M525.54,-503.34C526.96,-496.67 528.63,-488.89 530.24,-481.39"/>
<polygon fill="grey" stroke="grey" stroke-width="2" points="533.61,-482.37 532.28,-471.86 526.76,-480.91 533.61,-482.37"/>
</g>
<!-- 4 -->
<g id="node5" class="node">
<title>4</title>
<path fill="none" stroke="#d89556" stroke-width="2" stroke-dasharray="5,2" d="M544.75,-905.75C544.75,-905.75 444.75,-905.75 444.75,-905.75 438.75,-905.75 432.75,-899.75 432.75,-893.75 432.75,-893.75 432.75,-881.75 432.75,-881.75 432.75,-875.75 438.75,-869.75 444.75,-869.75 444.75,-869.75 544.75,-869.75 544.75,-869.75 550.75,-869.75 556.75,-875.75 556.75,-881.75 556.75,-881.75 556.75,-893.75 556.75,-893.75 556.75,-899.75 550.75,-905.75 544.75,-905.75"/>
<text text-anchor="middle" x="494.75" y="-883.88" font-family="sans" font-size="10.00">build_genbank_reference</text>
</g>
<!-- 4&#45;&gt;3 -->
<g id="edge5" class="edge">
<title>4&#45;&gt;3</title>
<path fill="none" stroke="grey" stroke-width="2" d="M487.06,-868.93C475.96,-841.55 456.75,-787.2 456.75,-739 456.75,-739 456.75,-739 456.75,-665 456.75,-624.36 459.62,-612.38 477.75,-576 482.27,-566.92 488.63,-558.04 495.11,-550.22"/>
<polygon fill="grey" stroke="grey" stroke-width="2" points="497.57,-552.72 501.55,-542.9 492.32,-548.09 497.57,-552.72"/>
</g>
<!-- 13 -->
<g id="node14" class="node">
<title>13</title>
<path fill="none" stroke="#d8d356" stroke-width="2" d="M545.12,-612C545.12,-612 498.38,-612 498.38,-612 492.38,-612 486.38,-606 486.38,-600 486.38,-600 486.38,-588 486.38,-588 486.38,-582 492.38,-576 498.38,-576 498.38,-576 545.12,-576 545.12,-576 551.12,-576 557.12,-582 557.12,-588 557.12,-588 557.12,-600 557.12,-600 557.12,-606 551.12,-612 545.12,-612"/>
<text text-anchor="middle" x="521.75" y="-590.12" font-family="sans" font-size="10.00">call_variants</text>
</g>
<!-- 4&#45;&gt;13 -->
<g id="edge16" class="edge">
<title>4&#45;&gt;13</title>
<path fill="none" stroke="grey" stroke-width="2" d="M496.4,-868.94C500.87,-820.62 513.27,-686.61 518.9,-625.76"/>
<polygon fill="grey" stroke="grey" stroke-width="2" points="522.37,-626.24 519.81,-615.96 515.4,-625.6 522.37,-626.24"/>
</g>
<!-- 17 -->
<g id="node18" class="node">
<title>17</title>
<path fill="none" stroke="#56d8b1" stroke-width="2" stroke-dasharray="5,2" d="M604.75,-830.88C604.75,-830.88 534.75,-830.88 534.75,-830.88 528.75,-830.88 522.75,-824.88 522.75,-818.88 522.75,-818.88 522.75,-806.88 522.75,-806.88 522.75,-800.88 528.75,-794.88 534.75,-794.88 534.75,-794.88 604.75,-794.88 604.75,-794.88 610.75,-794.88 616.75,-800.88 616.75,-806.88 616.75,-806.88 616.75,-818.88 616.75,-818.88 616.75,-824.88 610.75,-830.88 604.75,-830.88"/>
<text text-anchor="middle" x="569.75" y="-814.62" font-family="sans" font-size="10.00">index</text>
<text text-anchor="middle" x="569.75" y="-803.38" font-family="sans" font-size="10.00">sample: reference</text>
</g>
<!-- 4&#45;&gt;17 -->
<g id="edge20" class="edge">
<title>4&#45;&gt;17</title>
<path fill="none" stroke="grey" stroke-width="2" d="M512.91,-869.11C521.62,-860.64 532.25,-850.31 541.95,-840.88"/>
<polygon fill="grey" stroke="grey" stroke-width="2" points="544.34,-843.45 549.07,-833.97 539.46,-838.43 544.34,-843.45"/>
</g>
<!-- 5 -->
<g id="node6" class="node">
<title>5</title>
<path fill="none" stroke="#61d856" stroke-width="2" stroke-dasharray="5,2" d="M95.5,-977.75C95.5,-977.75 12,-977.75 12,-977.75 6,-977.75 0,-971.75 0,-965.75 0,-965.75 0,-953.75 0,-953.75 0,-947.75 6,-941.75 12,-941.75 12,-941.75 95.5,-941.75 95.5,-941.75 101.5,-941.75 107.5,-947.75 107.5,-953.75 107.5,-953.75 107.5,-965.75 107.5,-965.75 107.5,-971.75 101.5,-977.75 95.5,-977.75"/>
<text text-anchor="middle" x="53.75" y="-961.5" font-family="sans" font-size="10.00">fetch_reference_data</text>
<text text-anchor="middle" x="53.75" y="-950.25" font-family="sans" font-size="10.00">segment: pb2</text>
</g>
<!-- 5&#45;&gt;4 -->
<g id="edge7" class="edge">
<title>5&#45;&gt;4</title>
<path fill="none" stroke="grey" stroke-width="2" d="M108.29,-943.59C111.14,-942.93 113.98,-942.32 116.75,-941.75 220.63,-920.54 342.31,-905.14 418.97,-896.57"/>
<polygon fill="grey" stroke="grey" stroke-width="2" points="419.24,-900.06 428.8,-895.49 418.47,-893.1 419.24,-900.06"/>
</g>
<!-- 6 -->
<g id="node7" class="node">
<title>6</title>
<path fill="none" stroke="#61d856" stroke-width="2" stroke-dasharray="5,2" d="M221.5,-977.75C221.5,-977.75 138,-977.75 138,-977.75 132,-977.75 126,-971.75 126,-965.75 126,-965.75 126,-953.75 126,-953.75 126,-947.75 132,-941.75 138,-941.75 138,-941.75 221.5,-941.75 221.5,-941.75 227.5,-941.75 233.5,-947.75 233.5,-953.75 233.5,-953.75 233.5,-965.75 233.5,-965.75 233.5,-971.75 227.5,-977.75 221.5,-977.75"/>
<text text-anchor="middle" x="179.75" y="-961.5" font-family="sans" font-size="10.00">fetch_reference_data</text>
<text text-anchor="middle" x="179.75" y="-950.25" font-family="sans" font-size="10.00">segment: pb1</text>
</g>
<!-- 6&#45;&gt;4 -->
<g id="edge8" class="edge">
<title>6&#45;&gt;4</title>
<path fill="none" stroke="grey" stroke-width="2" d="M234.34,-943.82C237.18,-943.1 240,-942.41 242.75,-941.75 301.74,-927.6 368.99,-913.56 419.18,-903.49"/>
<polygon fill="grey" stroke="grey" stroke-width="2" points="419.79,-906.94 428.91,-901.55 418.42,-900.07 419.79,-906.94"/>
</g>
<!-- 7 -->
<g id="node8" class="node">
<title>7</title>
<path fill="none" stroke="#61d856" stroke-width="2" stroke-dasharray="5,2" d="M347.5,-977.75C347.5,-977.75 264,-977.75 264,-977.75 258,-977.75 252,-971.75 252,-965.75 252,-965.75 252,-953.75 252,-953.75 252,-947.75 258,-941.75 264,-941.75 264,-941.75 347.5,-941.75 347.5,-941.75 353.5,-941.75 359.5,-947.75 359.5,-953.75 359.5,-953.75 359.5,-965.75 359.5,-965.75 359.5,-971.75 353.5,-977.75 347.5,-977.75"/>
<text text-anchor="middle" x="305.75" y="-961.5" font-family="sans" font-size="10.00">fetch_reference_data</text>
<text text-anchor="middle" x="305.75" y="-950.25" font-family="sans" font-size="10.00">segment: pa</text>
</g>
<!-- 7&#45;&gt;4 -->
<g id="edge9" class="edge">
<title>7&#45;&gt;4</title>
<path fill="none" stroke="grey" stroke-width="2" d="M353.93,-940.9C378.39,-931.85 408.34,-920.76 434.32,-911.13"/>
<polygon fill="grey" stroke="grey" stroke-width="2" points="435.33,-914.49 443.49,-907.74 432.9,-907.93 435.33,-914.49"/>
</g>
<!-- 8 -->
<g id="node9" class="node">
<title>8</title>
<path fill="none" stroke="#61d856" stroke-width="2" stroke-dasharray="5,2" d="M473.5,-977.75C473.5,-977.75 390,-977.75 390,-977.75 384,-977.75 378,-971.75 378,-965.75 378,-965.75 378,-953.75 378,-953.75 378,-947.75 384,-941.75 390,-941.75 390,-941.75 473.5,-941.75 473.5,-941.75 479.5,-941.75 485.5,-947.75 485.5,-953.75 485.5,-953.75 485.5,-965.75 485.5,-965.75 485.5,-971.75 479.5,-977.75 473.5,-977.75"/>
<text text-anchor="middle" x="431.75" y="-961.5" font-family="sans" font-size="10.00">fetch_reference_data</text>
<text text-anchor="middle" x="431.75" y="-950.25" font-family="sans" font-size="10.00">segment: ha</text>
</g>
<!-- 8&#45;&gt;4 -->
<g id="edge10" class="edge">
<title>8&#45;&gt;4</title>
<path fill="none" stroke="grey" stroke-width="2" d="M447.65,-941.09C454.46,-933.52 462.57,-924.5 470.13,-916.1"/>
<polygon fill="grey" stroke="grey" stroke-width="2" points="472.53,-918.68 476.61,-908.9 467.32,-913.99 472.53,-918.68"/>
</g>
<!-- 9 -->
<g id="node10" class="node">
<title>9</title>
<path fill="none" stroke="#61d856" stroke-width="2" stroke-dasharray="5,2" d="M599.5,-977.75C599.5,-977.75 516,-977.75 516,-977.75 510,-977.75 504,-971.75 504,-965.75 504,-965.75 504,-953.75 504,-953.75 504,-947.75 510,-941.75 516,-941.75 516,-941.75 599.5,-941.75 599.5,-941.75 605.5,-941.75 611.5,-947.75 611.5,-953.75 611.5,-953.75 611.5,-965.75 611.5,-965.75 611.5,-971.75 605.5,-977.75 599.5,-977.75"/>
<text text-anchor="middle" x="557.75" y="-961.5" font-family="sans" font-size="10.00">fetch_reference_data</text>
<text text-anchor="middle" x="557.75" y="-950.25" font-family="sans" font-size="10.00">segment: np</text>
</g>
<!-- 9&#45;&gt;4 -->
<g id="edge11" class="edge">
<title>9&#45;&gt;4</title>
<path fill="none" stroke="grey" stroke-width="2" d="M541.85,-941.09C535.04,-933.52 526.93,-924.5 519.37,-916.1"/>
<polygon fill="grey" stroke="grey" stroke-width="2" points="522.18,-913.99 512.89,-908.9 516.97,-918.68 522.18,-913.99"/>
</g>
<!-- 10 -->
<g id="node11" class="node">
<title>10</title>
<path fill="none" stroke="#61d856" stroke-width="2" stroke-dasharray="5,2" d="M725.5,-977.75C725.5,-977.75 642,-977.75 642,-977.75 636,-977.75 630,-971.75 630,-965.75 630,-965.75 630,-953.75 630,-953.75 630,-947.75 636,-941.75 642,-941.75 642,-941.75 725.5,-941.75 725.5,-941.75 731.5,-941.75 737.5,-947.75 737.5,-953.75 737.5,-953.75 737.5,-965.75 737.5,-965.75 737.5,-971.75 731.5,-977.75 725.5,-977.75"/>
<text text-anchor="middle" x="683.75" y="-961.5" font-family="sans" font-size="10.00">fetch_reference_data</text>
<text text-anchor="middle" x="683.75" y="-950.25" font-family="sans" font-size="10.00">segment: na</text>
</g>
<!-- 10&#45;&gt;4 -->
<g id="edge12" class="edge">
<title>10&#45;&gt;4</title>
<path fill="none" stroke="grey" stroke-width="2" d="M635.57,-940.9C611.11,-931.85 581.16,-920.76 555.18,-911.13"/>
<polygon fill="grey" stroke="grey" stroke-width="2" points="556.6,-907.93 546.01,-907.74 554.17,-914.49 556.6,-907.93"/>
</g>
<!-- 11 -->
<g id="node12" class="node">
<title>11</title>
<path fill="none" stroke="#61d856" stroke-width="2" stroke-dasharray="5,2" d="M851.5,-977.75C851.5,-977.75 768,-977.75 768,-977.75 762,-977.75 756,-971.75 756,-965.75 756,-965.75 756,-953.75 756,-953.75 756,-947.75 762,-941.75 768,-941.75 768,-941.75 851.5,-941.75 851.5,-941.75 857.5,-941.75 863.5,-947.75 863.5,-953.75 863.5,-953.75 863.5,-965.75 863.5,-965.75 863.5,-971.75 857.5,-977.75 851.5,-977.75"/>
<text text-anchor="middle" x="809.75" y="-961.5" font-family="sans" font-size="10.00">fetch_reference_data</text>
<text text-anchor="middle" x="809.75" y="-950.25" font-family="sans" font-size="10.00">segment: m</text>
</g>
<!-- 11&#45;&gt;4 -->
<g id="edge13" class="edge">
<title>11&#45;&gt;4</title>
<path fill="none" stroke="grey" stroke-width="2" d="M755.16,-943.82C752.32,-943.1 749.5,-942.41 746.75,-941.75 687.76,-927.6 620.51,-913.56 570.32,-903.49"/>
<polygon fill="grey" stroke="grey" stroke-width="2" points="571.08,-900.07 560.59,-901.55 569.71,-906.94 571.08,-900.07"/>
</g>
<!-- 12 -->
<g id="node13" class="node">
<title>12</title>
<path fill="none" stroke="#61d856" stroke-width="2" stroke-dasharray="5,2" d="M977.5,-977.75C977.5,-977.75 894,-977.75 894,-977.75 888,-977.75 882,-971.75 882,-965.75 882,-965.75 882,-953.75 882,-953.75 882,-947.75 888,-941.75 894,-941.75 894,-941.75 977.5,-941.75 977.5,-941.75 983.5,-941.75 989.5,-947.75 989.5,-953.75 989.5,-953.75 989.5,-965.75 989.5,-965.75 989.5,-971.75 983.5,-977.75 977.5,-977.75"/>
<text text-anchor="middle" x="935.75" y="-961.5" font-family="sans" font-size="10.00">fetch_reference_data</text>
<text text-anchor="middle" x="935.75" y="-950.25" font-family="sans" font-size="10.00">segment: ns</text>
</g>
<!-- 12&#45;&gt;4 -->
<g id="edge14" class="edge">
<title>12&#45;&gt;4</title>
<path fill="none" stroke="grey" stroke-width="2" d="M881.21,-943.59C878.36,-942.93 875.52,-942.32 872.75,-941.75 768.87,-920.54 647.19,-905.14 570.53,-896.57"/>
<polygon fill="grey" stroke="grey" stroke-width="2" points="571.03,-893.1 560.7,-895.49 570.26,-900.06 571.03,-893.1"/>
</g>
<!-- 13&#45;&gt;3 -->
<g id="edge6" class="edge">
<title>13&#45;&gt;3</title>
<path fill="none" stroke="grey" stroke-width="2" d="M521.75,-575.34C521.75,-568.75 521.75,-561.08 521.75,-553.67"/>
<polygon fill="grey" stroke="grey" stroke-width="2" points="525.25,-553.93 521.75,-543.93 518.25,-553.93 525.25,-553.93"/>
</g>
<!-- 14 -->
<g id="node15" class="node">
<title>14</title>
<path fill="none" stroke="#5692d8" stroke-width="2" d="M580.62,-684C580.62,-684 548.88,-684 548.88,-684 542.88,-684 536.88,-678 536.88,-672 536.88,-672 536.88,-660 536.88,-660 536.88,-654 542.88,-648 548.88,-648 548.88,-648 580.62,-648 580.62,-648 586.62,-648 592.62,-654 592.62,-660 592.62,-660 592.62,-672 592.62,-672 592.62,-678 586.62,-684 580.62,-684"/>
<text text-anchor="middle" x="564.75" y="-662.12" font-family="sans" font-size="10.00">samtools</text>
</g>
<!-- 14&#45;&gt;13 -->
<g id="edge15" class="edge">
<title>14&#45;&gt;13</title>
<path fill="none" stroke="grey" stroke-width="2" d="M553.9,-647.34C549.5,-640.18 544.31,-631.73 539.4,-623.73"/>
<polygon fill="grey" stroke="grey" stroke-width="2" points="542.55,-622.17 534.33,-615.48 536.58,-625.83 542.55,-622.17"/>
</g>
<!-- 15 -->
<g id="node16" class="node">
<title>15</title>
<path fill="none" stroke="#56d8c9" stroke-width="2" d="M621,-756C621,-756 534.5,-756 534.5,-756 528.5,-756 522.5,-750 522.5,-744 522.5,-744 522.5,-732 522.5,-732 522.5,-726 528.5,-720 534.5,-720 534.5,-720 621,-720 621,-720 627,-720 633,-726 633,-732 633,-732 633,-744 633,-744 633,-750 627,-756 621,-756"/>
<text text-anchor="middle" x="577.75" y="-739.75" font-family="sans" font-size="10.00">mapping</text>
<text text-anchor="middle" x="577.75" y="-728.5" font-family="sans" font-size="10.00">mapping_stage: initial</text>
</g>
<!-- 15&#45;&gt;14 -->
<g id="edge17" class="edge">
<title>15&#45;&gt;14</title>
<path fill="none" stroke="grey" stroke-width="2" d="M574.47,-719.34C573.25,-712.75 571.82,-705.08 570.45,-697.67"/>
<polygon fill="grey" stroke="grey" stroke-width="2" points="573.89,-697.07 568.63,-687.88 567.01,-698.35 573.89,-697.07"/>
</g>
<!-- 16 -->
<g id="node17" class="node">
<title>16</title>
<path fill="none" stroke="#5682d8" stroke-width="2" d="M692.75,-833.75C692.75,-833.75 646.75,-833.75 646.75,-833.75 640.75,-833.75 634.75,-827.75 634.75,-821.75 634.75,-821.75 634.75,-804 634.75,-804 634.75,-798 640.75,-792 646.75,-792 646.75,-792 692.75,-792 692.75,-792 698.75,-792 704.75,-798 704.75,-804 704.75,-804 704.75,-821.75 704.75,-821.75 704.75,-827.75 698.75,-833.75 692.75,-833.75"/>
<text text-anchor="middle" x="669.75" y="-820.25" font-family="sans" font-size="10.00">trimmomatic</text>
<text text-anchor="middle" x="669.75" y="-809" font-family="sans" font-size="10.00">replicate: 1</text>
<text text-anchor="middle" x="669.75" y="-797.75" font-family="sans" font-size="10.00">sample: C6</text>
</g>
<!-- 16&#45;&gt;15 -->
<g id="edge18" class="edge">
<title>16&#45;&gt;15</title>
<path fill="none" stroke="grey" stroke-width="2" d="M643.63,-791.19C633.25,-782.96 621.18,-773.41 610.24,-764.74"/>
<polygon fill="grey" stroke="grey" stroke-width="2" points="612.57,-762.12 602.56,-758.65 608.22,-767.6 612.57,-762.12"/>
</g>
<!-- 20 -->
<g id="node21" class="node">
<title>20</title>
<path fill="none" stroke="#56d8c9" stroke-width="2" d="M692.25,-324C692.25,-324 583.25,-324 583.25,-324 577.25,-324 571.25,-318 571.25,-312 571.25,-312 571.25,-300 571.25,-300 571.25,-294 577.25,-288 583.25,-288 583.25,-288 692.25,-288 692.25,-288 698.25,-288 704.25,-294 704.25,-300 704.25,-300 704.25,-312 704.25,-312 704.25,-318 698.25,-324 692.25,-324"/>
<text text-anchor="middle" x="637.75" y="-307.75" font-family="sans" font-size="10.00">mapping</text>
<text text-anchor="middle" x="637.75" y="-296.5" font-family="sans" font-size="10.00">mapping_stage: remapping</text>
</g>
<!-- 16&#45;&gt;20 -->
<g id="edge24" class="edge">
<title>16&#45;&gt;20</title>
<path fill="none" stroke="grey" stroke-width="2" d="M668.59,-791.25C667.11,-763.16 664.75,-711.29 664.75,-667 664.75,-667 664.75,-667 664.75,-449 664.75,-409.79 654.69,-365.54 646.85,-337.02"/>
<polygon fill="grey" stroke="grey" stroke-width="2" points="650.29,-336.29 644.18,-327.64 643.56,-338.21 650.29,-336.29"/>
</g>
<!-- 17&#45;&gt;15 -->
<g id="edge19" class="edge">
<title>17&#45;&gt;15</title>
<path fill="none" stroke="grey" stroke-width="2" d="M571.69,-794.23C572.49,-786.91 573.45,-778.2 574.36,-769.88"/>
<polygon fill="grey" stroke="grey" stroke-width="2" points="577.83,-770.32 575.45,-759.99 570.87,-769.55 577.83,-770.32"/>
</g>
<!-- 18&#45;&gt;1 -->
<g id="edge3" class="edge">
<title>18&#45;&gt;1</title>
<path fill="none" stroke="grey" stroke-width="2" d="M559.68,-143.34C556.52,-136.43 552.81,-128.31 549.26,-120.56"/>
<polygon fill="grey" stroke="grey" stroke-width="2" points="552.53,-119.29 545.19,-111.65 546.17,-122.2 552.53,-119.29"/>
</g>
<!-- 19 -->
<g id="node20" class="node">
<title>19</title>
<path fill="none" stroke="#5692d8" stroke-width="2" d="M633.62,-252C633.62,-252 601.88,-252 601.88,-252 595.88,-252 589.88,-246 589.88,-240 589.88,-240 589.88,-228 589.88,-228 589.88,-222 595.88,-216 601.88,-216 601.88,-216 633.62,-216 633.62,-216 639.62,-216 645.62,-222 645.62,-228 645.62,-228 645.62,-240 645.62,-240 645.62,-246 639.62,-252 633.62,-252"/>
<text text-anchor="middle" x="617.75" y="-230.12" font-family="sans" font-size="10.00">samtools</text>
</g>
<!-- 19&#45;&gt;18 -->
<g id="edge21" class="edge">
<title>19&#45;&gt;18</title>
<path fill="none" stroke="grey" stroke-width="2" d="M605.13,-215.34C599.96,-208.1 593.84,-199.53 588.07,-191.45"/>
<polygon fill="grey" stroke="grey" stroke-width="2" points="590.96,-189.47 582.3,-183.37 585.26,-193.54 590.96,-189.47"/>
</g>
<!-- 20&#45;&gt;19 -->
<g id="edge23" class="edge">
<title>20&#45;&gt;19</title>
<path fill="none" stroke="grey" stroke-width="2" d="M632.7,-287.34C630.8,-280.67 628.57,-272.89 626.43,-265.39"/>
<polygon fill="grey" stroke="grey" stroke-width="2" points="629.81,-264.47 623.7,-255.81 623.08,-266.39 629.81,-264.47"/>
</g>
<!-- 21&#45;&gt;20 -->
<g id="edge25" class="edge">
<title>21&#45;&gt;20</title>
<path fill="none" stroke="grey" stroke-width="2" d="M613.82,-359.34C616.98,-352.43 620.69,-344.31 624.24,-336.56"/>
<polygon fill="grey" stroke="grey" stroke-width="2" points="627.33,-338.2 628.31,-327.65 620.97,-335.29 627.33,-338.2"/>
</g>
</g>
</svg>
